<svg height="512pt" fill="#ffffff" viewBox="0 0 512 512" width="512pt" xmlns="http://www.w3.org/2000/svg"><path d="m482 332c0-33.085938-26.914062-60-60-60s-60 26.914062-60 60 26.914062 60 60 60 60-26.914062 60-60zm-60 30c-16.542969 0-30-13.457031-30-30s13.457031-30 30-30 30 13.457031 30 30-13.457031 30-30 30zm0 0"/><path d="m422 392c-22.144531 0-42.441406 8.042969-58.136719 21.355469l-92.863281-73.605469v-97.75h76v-30c0-49.550781-41.050781-90-91-90-49.625 0-90 40.375-90 90v30h75v97.75l-92.863281 73.605469c-15.695313-13.3125-35.992188-21.355469-58.136719-21.355469-49.625 0-90 40.375-90 90v30h180v-30c0-16.675781-4.5625-32.304688-12.5-45.710938l88.5-70.148437 88.5 70.148437c-7.9375 13.40625-12.5 29.035157-12.5 45.710938v30h180v-30c0-49.625-40.375-90-90-90zm-166-240c33.636719 0 61 26.914062 61 60h-121c0-33.085938 26.914062-60 60-60zm-226 330c0-33.085938 26.914062-60 60-60s60 26.914062 60 60zm332 0c0-33.085938 26.914062-60 60-60s60 26.914062 60 60zm0 0"/><path d="m150 332c0-33.085938-26.914062-60-60-60s-60 26.914062-60 60 26.914062 60 60 60 60-26.914062 60-60zm-60 30c-16.542969 0-30-13.457031-30-30s13.457031-30 30-30 30 13.457031 30 30-13.457031 30-30 30zm0 0"/><path d="m317 61c0-33.066406-27.933594-61-61-61-33.421875 0-60 28.113281-60 61 0 32.894531 26.585938 61 60 61 33.066406 0 61-27.933594 61-61zm-61 31c-16.261719 0-30-14.195312-30-31s13.738281-31 30-31c16.515625 0 31 14.484375 31 31s-14.484375 31-31 31zm0 0"/></svg>