<svg xmlns="http://www.w3.org/2000/svg" width="22" height="22" fill="none" viewBox="0 0 22 22">
  <path fill="#fff" d="M.4 20.6a1 1 0 0 0 2 0h-2Zm1-3.6h1-1Zm10.2-2.6a1 1 0 1 0 0-2v2Zm9 1.2a1 1 0 1 0 0-2v2Zm-5.4-2a1 1 0 1 0 0 2v-2Zm1.7 3.7a1 1 0 0 0 2 0h-2Zm2-5.4a1 1 0 1 0-2 0h2ZM16.89.528a1 1 0 1 0-.979 1.744L16.89.528Zm-.979 7.2a1 1 0 0 0 .978 1.744l-.978-1.744ZM12.401 5a2.6 2.6 0 0 1-2.6 2.6v2A4.6 4.6 0 0 0 14.4 5h-2ZM9.8 7.6A2.6 2.6 0 0 1 7.2 5h-2a4.6 4.6 0 0 0 4.6 4.6v-2ZM7.2 5a2.6 2.6 0 0 1 2.6-2.6v-2A4.6 4.6 0 0 0 5.2 5h2Zm2.6-2.6A2.6 2.6 0 0 1 12.4 5h2A4.6 4.6 0 0 0 9.8.4v2ZM2.4 20.6V17h-2v3.6h2ZM5 12.4A4.6 4.6 0 0 0 .4 17h2A2.6 2.6 0 0 1 5 14.4v-2Zm0 2h6.6v-2H5v2Zm15.6-.8h-2.7v2h2.7v-2Zm-2.7 0h-2.7v2h2.7v-2Zm1 3.7v-2.7h-2v2.7h2Zm0-2.7v-2.7h-2v2.7h2ZM15.91 2.272C17.148 2.966 17.8 3.986 17.8 5h2c0-1.936-1.237-3.534-2.912-4.472l-.978 1.744ZM17.801 5c0 1.014-.652 2.034-1.89 2.728l.978 1.744C18.564 8.533 19.8 6.936 19.8 5h-2Z"/>
</svg>
