<svg xmlns="http://www.w3.org/2000/svg" width="18" height="19" fill="none" viewBox="0 0 18 19">
  <path stroke="#fff" stroke-linecap="round" stroke-linejoin="round" d="M9.726 4.476c1 .178 1.908.68 2.633 1.449a5.27 5.27 0 0 1 1.367 2.792M9.879 1c1.778.32 3.4 1.214 4.69 2.578A9.366 9.366 0 0 1 17 8.55m-1.39 7.503s-.965 1.007-1.201 1.303c-.386.437-.84.643-1.435.643-.058 0-.119 0-.176-.004-1.133-.077-2.187-.546-2.977-.947-2.16-1.109-4.057-2.683-5.633-4.678-1.301-1.663-2.171-3.2-2.748-4.852-.354-1.007-.484-1.793-.427-2.533.038-.474.21-.866.527-1.202l1.301-1.38c.187-.186.386-.287.58-.287.24 0 .435.154.557.283l.012.012c.233.23.454.47.687.725.118.13.24.259.362.392l1.042 1.105c.405.429.405.825 0 1.254-.11.118-.217.235-.328.348-.32.348-.069.081-.4.397-.008.008-.016.012-.02.02-.328.348-.267.688-.198.919l.011.036c.271.696.653 1.352 1.233 2.133l.004.004c1.053 1.376 2.164 2.448 3.389 3.27.156.105.316.19.47.27.136.073.266.142.377.215.015.008.03.02.046.028a.79.79 0 0 0 .378.102c.316 0 .515-.21.58-.28l.748-.793c.13-.137.335-.303.576-.303.237 0 .431.158.55.295l.007.008 2.103 2.23c.393.413.004 1.267.004 1.267Z"/>
</svg>
