<svg xmlns="http://www.w3.org/2000/svg" width="29" height="29" fill="currentColor" viewBox="0 0 29 29">
  <path d="M14.35 0h-.367C6.276 0 0 6.276 0 13.982v.369c0 7.707 6.276 13.982 13.982 13.982h.369c7.707 0 13.982-6.275 13.982-13.982v-.369C28.333 6.276 22.058 0 14.351 0Zm4.194 15.23h-6.19l1.671 1.685c.425.41.425 1.077 0 1.502a1.061 1.061 0 0 1-.75.311c-.27 0-.54-.113-.752-.311l-3.485-3.5a1.07 1.07 0 0 1 0-1.501l3.485-3.5a1.07 1.07 0 0 1 1.502 0 1.044 1.044 0 0 1 0 1.502l-1.672 1.686h6.191a1.062 1.062 0 1 1 0 2.125Z"/>
</svg>
