<svg xmlns="http://www.w3.org/2000/svg" width="22" height="22" fill="none" viewBox="0 0 22 22">
  <path stroke="#fff" stroke-linecap="round" stroke-linejoin="round" stroke-width="2" d="M15.264 1h5.733m0 0L21 6.066M20.997 1l-6.513 6.514m5.304 10.472s-1.242 1.22-1.546 1.577c-.495.529-1.08.779-1.845.779-.074 0-.152 0-.226-.005-1.457-.093-2.812-.661-3.828-1.146A21.793 21.793 0 0 1 5.1 13.529c-1.674-2.012-2.793-3.874-3.534-5.872-.456-1.22-.623-2.17-.55-3.066.05-.573.27-1.048.678-1.454l1.673-1.67c.24-.225.496-.348.746-.348.31 0 .56.186.717.343l.015.015c.299.279.584.568.883.876.152.157.31.314.466.475l1.34 1.337c.52.52.52 1 0 1.519-.142.142-.28.284-.422.42-.412.422-.089.099-.515.48-.01.01-.02.016-.025.025-.422.421-.344.833-.255 1.112l.015.044c.348.842.839 1.636 1.585 2.581l.005.005c1.354 1.665 2.782 2.963 4.357 3.957.202.127.408.23.604.328.177.088.344.172.486.26.02.01.04.024.059.034.167.083.324.123.486.123.407 0 .662-.255.746-.338l.961-.96c.167-.167.432-.368.742-.368.304 0 .554.191.706.358l.01.01 2.704 2.698c.506.5.005 1.533.005 1.533Z"/>
</svg>
