<svg xmlns="http://www.w3.org/2000/svg" width="39" height="16" fill="#fff" viewBox="0 0 39 16">
  <path d="M1.094 12.514s.024-2.706-.034-3.434c-.037-1.127.33-2.044 1.173-2.886.08-.08.167-.167.253-.243 1.705-1.5 3.82-2.365 5.47-2.95 4.531-1.578 9.309-2.165 14.193-1.74 4.054.374 7.332 1.19 10.344 2.573 1.843.84 3.072 1.7 3.976 2.767a3.49 3.49 0 0 1 .855 2.345l-.003 3.677c-.017.512-.163.927-.438 1.203-.34.34-.82.41-1.165.41h-.033a38.52 38.52 0 0 1-1.935.008c-.34-.005-.685-.005-1.036-.01l-2.944.003c-1.142.002-1.67-.526-1.67-1.67.001-.312-.004-.62.002-.927-.01-.916-.01-.205.039-1.095 0-.021.005-.037 0-.053 0-.928-.538-1.294-.942-1.504l-.065-.032c-1.31-.543-2.722-.876-4.582-1.095h-.01c-3.322-.342-6.32-.199-9.145.44-.362.082-.702.195-1.025.303-.291.098-.566.19-.82.25-.032.01-.07.016-.102.026a1.67 1.67 0 0 0-.67.4c-.447.448-.448 1.009-.448 1.192l-.002 2.114c0 .366-.071.879-.411 1.219-.335.334-.82.4-1.17.384h-.022l-5.942.006c-1.105.006-1.691-1.68-1.691-1.68Z"/>
</svg>
