<svg xmlns="http://www.w3.org/2000/svg" width="16" height="16" fill="none" viewBox="0 0 16 16">
  <path stroke="#F2F2F2" stroke-linecap="round" stroke-linejoin="round" d="M7.63 9.429c.389.317 1.263.918 1.677 1.177.148.092.3.167.445.239.13.064.253.124.358.189l.043.025c.123.06.239.089.358.089.3 0 .488-.186.55-.246l.708-.7c.123-.12.318-.267.545-.267.225 0 .409.14.52.26l2 1.973c.372.364.003 1.116.003 1.116s-.914.888-1.138 1.149c-.365.385-.796.567-1.36.567-.053 0-.111 0-.166-.004-1.073-.067-2.07-.481-2.819-.834-1.283-.613-2.779-1.81-3.853-2.736M3.293 9.124C2.452 7.996 1.848 6.91 1.417 5.762c-.336-.888-.459-1.58-.405-2.233.036-.417.2-.763.5-1.06l1.232-1.216C2.92 1.09 3.109 1 3.293 1c.228 0 .412.136.528.25l.01.01c.221.204.43.414.651.639.112.114.228.228.343.346l.987.974c.383.378.383.727 0 1.105-.105.104-.206.207-.31.307-.304.307-.066.071-.38.35-.007.007-.015.01-.018.018-.311.306-.253.606-.188.81l.01.031c.168.401.381.787.662 1.199M1 14.579 14.732 1"/>
</svg>
