<svg xmlns="http://www.w3.org/2000/svg" width="25" height="25" fill="none" viewBox="0 0 25 25">
  <path fill="#fff" d="M12.52 0c-2.47 0-4.882.73-6.934 2.098A12.454 12.454 0 0 0 .989 7.684a12.416 12.416 0 0 0 2.705 13.564 12.49 12.49 0 0 0 6.39 3.406c2.421.48 4.93.234 7.211-.708a12.473 12.473 0 0 0 5.6-4.584A12.423 12.423 0 0 0 25 12.447a12.455 12.455 0 0 0-3.662-8.794A12.521 12.521 0 0 0 12.519 0ZM10.6 16.277a.956.956 0 0 1-.96.957.961.961 0 0 1-.96-.957v-7.66a.956.956 0 0 1 .96-.957.961.961 0 0 1 .96.957v7.66Zm5.76 0a.956.956 0 0 1-.96.957.961.961 0 0 1-.96-.957v-7.66a.956.956 0 0 1 .96-.957.961.961 0 0 1 .96.957v7.66Z"/>
</svg>
