<svg xmlns="http://www.w3.org/2000/svg" width="17" height="24" fill="none" viewBox="0 0 17 24">
  <path fill="#fff" d="M8.298.957a4.82 4.82 0 0 0-3.353 1.347 4.525 4.525 0 0 0-1.389 3.25v6.893c0 1.219.5 2.388 1.389 3.25a4.819 4.819 0 0 0 3.353 1.346 4.819 4.819 0 0 0 3.353-1.346 4.525 4.525 0 0 0 1.389-3.25V5.553c0-1.219-.5-2.388-1.39-3.25A4.819 4.819 0 0 0 8.299.958Zm.593 19.369c4.306-.295 7.705-3.775 7.705-8.023a.707.707 0 0 0-.217-.508.753.753 0 0 0-1.048 0 .707.707 0 0 0-.217.508c0 3.649-3.052 6.607-6.816 6.607s-6.816-2.958-6.816-6.607a.707.707 0 0 0-.217-.508.753.753 0 0 0-1.048 0 .707.707 0 0 0-.217.508c0 4.15 3.244 7.567 7.409 7.997v2.918c0 .19.078.373.217.508a.753.753 0 0 0 1.048 0 .707.707 0 0 0 .217-.508v-2.892Z"/>
</svg>
