<svg xmlns="http://www.w3.org/2000/svg" width="22" height="23" fill="none" viewBox="0 0 22 23">
  <path fill="#fff" d="M.6 2.3A1.3 1.3 0 0 1 1.9 1h2.6a1.3 1.3 0 0 1 1.3 1.3v2.6a1.3 1.3 0 0 1-1.3 1.3H1.9A1.3 1.3 0 0 1 .6 4.9V2.3Zm7.8 0A1.3 1.3 0 0 1 9.7 1h2.6a1.3 1.3 0 0 1 1.3 1.3v2.6a1.3 1.3 0 0 1-1.3 1.3H9.7a1.3 1.3 0 0 1-1.3-1.3V2.3Zm7.8 0A1.3 1.3 0 0 1 17.5 1h2.6a1.3 1.3 0 0 1 1.3 1.3v2.6a1.3 1.3 0 0 1-1.3 1.3h-2.6a1.3 1.3 0 0 1-1.3-1.3V2.3ZM.6 10.1a1.3 1.3 0 0 1 1.3-1.3h2.6a1.3 1.3 0 0 1 1.3 1.3v2.6A1.3 1.3 0 0 1 4.5 14H1.9a1.3 1.3 0 0 1-1.3-1.3v-2.6Zm7.8 0a1.3 1.3 0 0 1 1.3-1.3h2.6a1.3 1.3 0 0 1 1.3 1.3v2.6a1.3 1.3 0 0 1-1.3 1.3H9.7a1.3 1.3 0 0 1-1.3-1.3v-2.6Zm7.8 0a1.3 1.3 0 0 1 1.3-1.3h2.6a1.3 1.3 0 0 1 1.3 1.3v2.6a1.3 1.3 0 0 1-1.3 1.3h-2.6a1.3 1.3 0 0 1-1.3-1.3v-2.6ZM.6 17.9a1.3 1.3 0 0 1 1.3-1.3h2.6a1.3 1.3 0 0 1 1.3 1.3v2.6a1.3 1.3 0 0 1-1.3 1.3H1.9a1.3 1.3 0 0 1-1.3-1.3v-2.6Zm7.8 0a1.3 1.3 0 0 1 1.3-1.3h2.6a1.3 1.3 0 0 1 1.3 1.3v2.6a1.3 1.3 0 0 1-1.3 1.3H9.7a1.3 1.3 0 0 1-1.3-1.3v-2.6Zm7.8 0a1.3 1.3 0 0 1 1.3-1.3h2.6a1.3 1.3 0 0 1 1.3 1.3v2.6a1.3 1.3 0 0 1-1.3 1.3h-2.6a1.3 1.3 0 0 1-1.3-1.3v-2.6Z"/>
  <path stroke="#fff" d="M.6 2.3A1.3 1.3 0 0 1 1.9 1h2.6a1.3 1.3 0 0 1 1.3 1.3v2.6a1.3 1.3 0 0 1-1.3 1.3H1.9A1.3 1.3 0 0 1 .6 4.9V2.3Zm7.8 0A1.3 1.3 0 0 1 9.7 1h2.6a1.3 1.3 0 0 1 1.3 1.3v2.6a1.3 1.3 0 0 1-1.3 1.3H9.7a1.3 1.3 0 0 1-1.3-1.3V2.3Zm7.8 0A1.3 1.3 0 0 1 17.5 1h2.6a1.3 1.3 0 0 1 1.3 1.3v2.6a1.3 1.3 0 0 1-1.3 1.3h-2.6a1.3 1.3 0 0 1-1.3-1.3V2.3ZM.6 10.1a1.3 1.3 0 0 1 1.3-1.3h2.6a1.3 1.3 0 0 1 1.3 1.3v2.6A1.3 1.3 0 0 1 4.5 14H1.9a1.3 1.3 0 0 1-1.3-1.3v-2.6Zm7.8 0a1.3 1.3 0 0 1 1.3-1.3h2.6a1.3 1.3 0 0 1 1.3 1.3v2.6a1.3 1.3 0 0 1-1.3 1.3H9.7a1.3 1.3 0 0 1-1.3-1.3v-2.6Zm7.8 0a1.3 1.3 0 0 1 1.3-1.3h2.6a1.3 1.3 0 0 1 1.3 1.3v2.6a1.3 1.3 0 0 1-1.3 1.3h-2.6a1.3 1.3 0 0 1-1.3-1.3v-2.6ZM.6 17.9a1.3 1.3 0 0 1 1.3-1.3h2.6a1.3 1.3 0 0 1 1.3 1.3v2.6a1.3 1.3 0 0 1-1.3 1.3H1.9a1.3 1.3 0 0 1-1.3-1.3v-2.6Zm7.8 0a1.3 1.3 0 0 1 1.3-1.3h2.6a1.3 1.3 0 0 1 1.3 1.3v2.6a1.3 1.3 0 0 1-1.3 1.3H9.7a1.3 1.3 0 0 1-1.3-1.3v-2.6Zm7.8 0a1.3 1.3 0 0 1 1.3-1.3h2.6a1.3 1.3 0 0 1 1.3 1.3v2.6a1.3 1.3 0 0 1-1.3 1.3h-2.6a1.3 1.3 0 0 1-1.3-1.3v-2.6Z"/>
</svg>
