<svg xmlns="http://www.w3.org/2000/svg" width="24" height="24" fill="none" viewBox="0 0 24 24">
  <g clip-path="url(#a)">
    <g clip-path="url(#b)">
      <path fill="red" d="M16.58 4.46a8.28 8.28 0 0 1 2.587 13.073l.946.947A9.62 9.62 0 0 0 17.16 3.253a.667.667 0 0 0-.58 1.2v.007Zm1.62 13.987-2.56-2.56-.38-.38L3.087 3.333l-.947.94L5.867 8H2a.667.667 0 0 0-.667.667v6.666A.666.666 0 0 0 2 16h3.887l6.34 5.533a.667.667 0 0 0 1.106-.5v-5.566l3.727 3.726a8.758 8.758 0 0 1-.34.194.668.668 0 1 0 .6 1.193c.247-.127.48-.267.72-.413l1.427 1.426.94-.926L18.24 18.5l-.04-.053Z"/>
      <path fill="red" d="M15.127 8.413A4.18 4.18 0 0 1 17.2 12a4.112 4.112 0 0 1-.947 2.613l.947.947A5.44 5.44 0 0 0 18.533 12 5.52 5.52 0 0 0 15.8 7.26a.667.667 0 1 0-.667 1.153h-.006ZM13.333 3.08a.666.666 0 0 0-1.106-.5l-4.28 3.733 5.386 5.38V3.08Z"/>
    </g>
  </g>
  <defs>
    <clipPath id="a">
      <path fill="#fff" d="M0 0h24v24H0z"/>
    </clipPath>
    <clipPath id="b">
      <path fill="#fff" d="M0 0h24v24H0z"/>
    </clipPath>
  </defs>
</svg>
