<svg xmlns="http://www.w3.org/2000/svg" width="28" height="23" fill="none" viewBox="0 0 28 23">
  <path fill="#fff" d="M12.24 21.065a1.436 1.436 0 0 1-.891-.311l-5.483-4.477H1.68a1.442 1.442 0 0 1-1.44-1.436V8.14a1.434 1.434 0 0 1 1.44-1.436h4.185l5.482-4.477a1.443 1.443 0 0 1 2.12.374c.14.226.213.486.213.752v16.276a1.434 1.434 0 0 1-1.44 1.437Zm5.28-4.788a.961.961 0 0 1-.959-.916.956.956 0 0 1 .102-.471c.57-1.13.858-2.274.858-3.4 0-1.16-.28-2.27-.855-3.395a.955.955 0 0 1 .427-1.272.962.962 0 0 1 1.283.402c.716 1.4 1.064 2.795 1.064 4.265 0 1.428-.36 2.861-1.062 4.26a.958.958 0 0 1-.858.527Z"/>
  <path fill="#fff" d="M20.4 19.15a.96.96 0 0 1-.96-.958.96.96 0 0 1 .128-.479c1.135-1.969 1.792-3.62 1.792-6.223 0-2.643-.656-4.282-1.79-6.22a.955.955 0 0 1 .352-1.298.962.962 0 0 1 1.307.334c1.266 2.164 2.05 4.12 2.05 7.184 0 3.018-.783 4.984-2.047 7.18a.96.96 0 0 1-.832.48Z"/>
  <path fill="#fff" d="M23.28 22.022a.962.962 0 0 1-.958-.997.957.957 0 0 1 .155-.483c1.634-2.501 2.723-4.997 2.723-9.052 0-3.98-1.09-6.5-2.729-9.06a.958.958 0 0 1 1.36-1.3.958.958 0 0 1 .26.27c1.818 2.843 3.03 5.646 3.03 10.09 0 3.875-.88 6.8-3.037 10.097a.96.96 0 0 1-.804.435Z"/>
</svg>
