<svg xmlns="http://www.w3.org/2000/svg" width="25" height="20" fill="none" viewBox="0 0 25 20">
  <rect width="25" height="20" fill="#C0C0C0" rx="4"/>
  <path fill="#262626" d="M21.063 14.126h-2.129a2.438 2.438 0 0 0-4.743 0H4.562a.563.563 0 0 0 0 1.125h9.629a2.438 2.438 0 0 0 4.743 0h2.128a.563.563 0 0 0 0-1.125ZM16.563 16a1.313 1.313 0 1 1 0-2.626 1.313 1.313 0 0 1 0 2.626Zm-12-9H8.19a2.438 2.438 0 0 0 4.743 0h8.129a.562.562 0 1 0 0-1.125h-8.129a2.438 2.438 0 0 0-4.743 0H4.562a.563.563 0 0 0 0 1.125Zm6-1.875a1.313 1.313 0 1 1 0 2.625 1.313 1.313 0 0 1 0-2.625Z"/>
</svg>
