<svg xmlns="http://www.w3.org/2000/svg" width="48" height="48" fill="none" viewBox="0 0 28 27">
  <path stroke="#fff" stroke-linecap="round" stroke-linejoin="round" stroke-width="2" d="M17.22 22.642s-.965.949-1.202 1.227c-.386.411-.84.605-1.435.605-.057 0-.118 0-.175-.003-1.134-.073-2.187-.515-2.977-.892a16.948 16.948 0 0 1-5.633-4.402C4.496 17.61 3.626 16.164 3.05 14.61c-.355-.948-.485-1.687-.428-2.384.039-.446.21-.815.527-1.131L4.45 9.796c.187-.175.386-.27.58-.27.241 0 .436.144.558.266l.011.012c.233.217.454.441.687.681.118.122.24.244.363.37l1.042 1.04c.404.403.404.777 0 1.18-.111.11-.218.221-.329.328-.32.327-.068.076-.4.373-.008.008-.016.011-.02.02-.328.327-.267.647-.198.864l.012.034c.27.655.652 1.272 1.232 2.007l.004.004c1.053 1.295 2.164 2.304 3.389 3.077.156.1.317.18.47.255.137.069.267.134.377.202.015.008.03.02.046.027.13.065.252.095.378.095.317 0 .515-.198.58-.263l.748-.746c.13-.13.336-.286.576-.286.237 0 .432.149.55.278l.008.008 2.102 2.098c.393.389.004 1.192.004 1.192ZM16 6.4 13.6 4m0 0L16 1.6M13.6 4h12.8M24 9.6l2.4 2.4m0 0L24 14.4m2.4-2.4H13.6"/>
  <rect width="17.045" height="3.331" x="3.688" y="11.428" fill="#fff" rx="1.666" transform="rotate(44.79 3.688 11.428)"/>
  <rect width="5.849" height="3.331" x="4.348" y="9" fill="#fff" rx="1.666" transform="rotate(44.79 4.348 9)"/>
  <rect width="4.218" height="3.331" x="14.504" y="19.149" fill="#fff" rx="1.666" transform="rotate(44.79 14.504 19.15)"/>
</svg>
